<svg version="1.1" xmlns="http://www.w3.org/2000/svg" xmlns:xlink="http://www.w3.org/1999/xlink" width="1754.75" height="580"><defs/><g transform="translate(0,0)"><g><rect fill="#FFFFFF" stroke="none" x="0" y="0" width="1754.75" height="580"/></g><g transform="translate(0,0) matrix(1,0,0,1,908.75,79.625)"><g><g transform="translate(0,0) scale(7.7,4.80375)"><g><path fill="#FFFFFF" stroke="none" d="M 0 0 L 100 0 Q 100 0 100 0 L 100 100 Q 100 100 100 100 L 0 100 Q 0 100 0 100 L 0 0 Q 0 0 0 0 Z"/><g transform="scale(0.12987012987012986,0.20817069997397866)"><path fill="none" stroke="none" d="M 0 0 L 770 0 Q 770 0 770 0 L 770 480.375 Q 770 480.375 770 480.375 L 0 480.375 Q 0 480.375 0 480.375 L 0 0 Q 0 0 0 0 Z"/><path fill="none" stroke="#333333" d="M 0 0 M 0 0 L 770 0 Q 770 0 770 0 L 770 480.375 Q 770 480.375 770 480.375 L 0 480.375 Q 0 480.375 0 480.375 L 0 0 Q 0 0 0 0 Z" stroke-miterlimit="10" stroke-width="2"/></g></g></g></g></g><g transform="translate(0,0) matrix(1,0,0,1,80,79.625)"><g><g transform="translate(0,0) scale(6.7,4.803749999999999)"><g><path fill="#FFFFFF" stroke="none" d="M 0 0 L 100 0 Q 100 0 100 0 L 100 100 Q 100 100 100 100 L 0 100 Q 0 100 0 100 L 0 0 Q 0 0 0 0 Z"/><g transform="scale(0.14925373134328357,0.2081706999739787)"><path fill="none" stroke="none" d="M 0 0 L 670 0 Q 670 0 670 0 L 670 480.3749999999999 Q 670 480.3749999999999 670 480.3749999999999 L 0 480.3749999999999 Q 0 480.3749999999999 0 480.3749999999999 L 0 0 Q 0 0 0 0 Z"/><path fill="none" stroke="#333333" d="M 0 0 M 0 0 L 670 0 Q 670 0 670 0 L 670 480.3749999999999 Q 670 480.3749999999999 670 480.3749999999999 L 0 480.3749999999999 Q 0 480.3749999999999 0 480.3749999999999 L 0 0 Q 0 0 0 0 Z" stroke-miterlimit="10" stroke-width="2"/></g></g></g></g></g><g transform="translate(0,0) matrix(1,0,0,1,400,110.75)"><g><g transform="translate(0,0) scale(3.3,3.5775)"><g><path fill="none" stroke="none" d="M 10 0 L 90 0 Q 100 0 100 10 L 100 90 Q 100 100 90 100 L 10 100 Q 0 100 0 90 L 0 10 Q 0 0 10 0 Z"/><g transform="scale(0.30303030303030304,0.2795248078266946)"><path fill="#FFFFFF" stroke="none" d="M 10 0 L 320 0 Q 330 0 330 10 L 330 347.75 Q 330 357.75 320 357.75 L 10 357.75 Q 0 357.75 0 347.75 L 0 10 Q 0 0 10 0 Z"/><path fill="none" stroke="#333333" d="M 10 0 M 10 0 L 320 0 Q 330 0 330 10 L 330 347.75 Q 330 357.75 320 357.75 L 10 357.75 Q 0 357.75 0 347.75 L 0 10 Q 0 0 10 0 Z" stroke-miterlimit="10" stroke-width="2"/></g></g></g></g></g><g transform="translate(0,0) matrix(1,0,0,1,140,110.75)"><g><g transform="translate(0,0) scale(2.3,3.5775)"><g><path fill="none" stroke="none" d="M 10 0 L 90 0 Q 100 0 100 10 L 100 90 Q 100 100 90 100 L 10 100 Q 0 100 0 90 L 0 10 Q 0 0 10 0 Z"/><g transform="scale(0.4347826086956522,0.2795248078266946)"><path fill="#FFFFFF" stroke="none" d="M 10 0 L 219.99999999999997 0 Q 229.99999999999997 0 229.99999999999997 10 L 229.99999999999997 347.75 Q 229.99999999999997 357.75 219.99999999999997 357.75 L 10 357.75 Q 0 357.75 0 347.75 L 0 10 Q 0 0 10 0 Z"/><path fill="none" stroke="#333333" d="M 10 0 M 10 0 L 219.99999999999997 0 Q 229.99999999999997 0 229.99999999999997 10 L 229.99999999999997 347.75 Q 229.99999999999997 357.75 219.99999999999997 357.75 L 10 357.75 Q 0 357.75 0 347.75 L 0 10 Q 0 0 10 0 Z" stroke-miterlimit="10" stroke-width="2"/></g></g></g></g></g><g transform="translate(0,0) matrix(1,0,0,1,175,239.25)"><g><g transform="translate(0,0) scale(1.7,1.8)"><g><path fill="none" stroke="none" d="M 10 0 L 90 0 Q 100 0 100 10 L 100 90 Q 100 100 90 100 L 10 100 Q 0 100 0 90 L 0 10 Q 0 0 10 0 Z"/><g transform="scale(0.5882352941176471,0.5555555555555556)"><path fill="#FFFFFF" stroke="none" d="M 10 0 L 160 0 Q 170 0 170 10 L 170 170 Q 170 180 160 180 L 10 180 Q 0 180 0 170 L 0 10 Q 0 0 10 0 Z"/><path fill="none" stroke="#333333" d="M 10 0 M 10 0 L 160 0 Q 170 0 170 10 L 170 170 Q 170 180 160 180 L 10 180 Q 0 180 0 170 L 0 10 Q 0 0 10 0 Z" stroke-miterlimit="10" stroke-width="2"/></g></g></g></g></g><g transform="scale(1,1) matrix(1,0,0,1,178.4,239.25) translate(8,83)"><text fill="#000000" stroke="none" font-family="Arial" font-size="12px" font-style="normal" font-weight="normal" text-decoration="none" x="56.09999999999998" y="11">R.DLL</text></g><g transform="translate(0,0) matrix(1,0,0,1,175,151.25)"><g><g transform="translate(0,0) scale(1.7,0.705)"><g><path fill="none" stroke="none" d="M 10 0 L 90 0 Q 100 0 100 10 L 100 90 Q 100 100 90 100 L 10 100 Q 0 100 0 90 L 0 10 Q 0 0 10 0 Z"/><g transform="scale(0.5882352941176471,1.4184397163120568)"><path fill="#FFFFFF" stroke="none" d="M 10 0 L 160 0 Q 170 0 170 10 L 170 60.5 Q 170 70.5 160 70.5 L 10 70.5 Q 0 70.5 0 60.5 L 0 10 Q 0 0 10 0 Z"/><path fill="none" stroke="#333333" d="M 10 0 M 10 0 L 160 0 Q 170 0 170 10 L 170 60.5 Q 170 70.5 160 70.5 L 10 70.5 Q 0 70.5 0 60.5 L 0 10 Q 0 0 10 0 Z" stroke-miterlimit="10" stroke-width="2"/></g></g></g></g></g><g transform="scale(1,1) matrix(1,0,0,1,178.4,151.25) translate(8,21.25)"><text fill="#000000" stroke="none" font-family="Arial" font-size="12px" font-style="normal" font-weight="normal" text-decoration="none" x="7.59999999999998" y="11">Windows /Unix Platform </text><text fill="#000000" stroke="none" font-family="Arial" font-size="12px" font-style="normal" font-weight="normal" text-decoration="none" x="49.09999999999998" y="25">Specifics</text></g><g transform="scale(1,1) matrix(1,0,0,1,290,454.5) translate(2,7)"/><g transform="scale(1,1) matrix(1,0,0,1,188,540) translate(2,0)"><text fill="#000000" stroke="none" font-family="Arial" font-size="12px" font-style="normal" font-weight="normal" text-decoration="none" x="61.5" y="11">ProcessHost (local, out of process, or distributed)</text></g><g transform="translate(0,0) matrix(1,0,0,1,451,120)"><g><g transform="translate(0,0) scale(2.495,0.875)"><g><path fill="none" stroke="none" d="M 10 0 L 90 0 Q 100 0 100 10 L 100 90 Q 100 100 90 100 L 10 100 Q 0 100 0 90 L 0 10 Q 0 0 10 0 Z"/><g transform="scale(0.4008016032064128,1.1428571428571428)"><path fill="#FFFFFF" stroke="none" d="M 10 0 L 239.5 0 Q 249.5 0 249.5 10 L 249.5 77.5 Q 249.5 87.5 239.5 87.5 L 10 87.5 Q 0 87.5 0 77.5 L 0 10 Q 0 0 10 0 Z"/><path fill="none" stroke="#333333" d="M 10 0 M 10 0 L 239.5 0 Q 249.5 0 249.5 10 L 249.5 77.5 Q 249.5 87.5 239.5 87.5 L 10 87.5 Q 0 87.5 0 77.5 L 0 10 Q 0 0 10 0 Z" stroke-miterlimit="10" stroke-width="2"/></g></g></g></g></g><g transform="scale(1,1) matrix(1,0,0,1,455.99,120) translate(8,36.75)"><text fill="#000000" stroke="none" font-family="Arial" font-size="12px" font-style="normal" font-weight="normal" text-decoration="none" x="36.76000000000003" y="11">R Language Service (WCF)</text></g><g transform="translate(0,0) matrix(1,0,0,1,451,221.75)"><g><g transform="translate(0,0) scale(2.495,0.875)"><g><path fill="none" stroke="none" d="M 10 0 L 90 0 Q 100 0 100 10 L 100 90 Q 100 100 90 100 L 10 100 Q 0 100 0 90 L 0 10 Q 0 0 10 0 Z"/><g transform="scale(0.4008016032064128,1.1428571428571428)"><path fill="#FFFFFF" stroke="none" d="M 10 0 L 239.5 0 Q 249.5 0 249.5 10 L 249.5 77.5 Q 249.5 87.5 239.5 87.5 L 10 87.5 Q 0 87.5 0 77.5 L 0 10 Q 0 0 10 0 Z"/><path fill="none" stroke="#333333" d="M 10 0 M 10 0 L 239.5 0 Q 249.5 0 249.5 10 L 249.5 77.5 Q 249.5 87.5 239.5 87.5 L 10 87.5 Q 0 87.5 0 77.5 L 0 10 Q 0 0 10 0 Z" stroke-miterlimit="10" stroke-width="2"/></g></g></g></g></g><g transform="scale(1,1) matrix(1,0,0,1,455.99,221.75) translate(8,36.75)"><text fill="#000000" stroke="none" font-family="Arial" font-size="12px" font-style="normal" font-weight="normal" text-decoration="none" x="28.760000000000005" y="11">R Management Service (WCF)</text></g><g transform="translate(0,0) matrix(1,0,0,1,600.5,319)"><g><g transform="translate(0,0) scale(1,0.875)"><g><path fill="none" stroke="none" d="M 10 0 L 90 0 Q 100 0 100 10 L 100 90 Q 100 100 90 100 L 10 100 Q 0 100 0 90 L 0 10 Q 0 0 10 0 Z"/><g transform="scale(1,1.1428571428571428)"><path fill="#FFFFFF" stroke="none" d="M 10 0 L 90 0 Q 100 0 100 10 L 100 77.5 Q 100 87.5 90 87.5 L 10 87.5 Q 0 87.5 0 77.5 L 0 10 Q 0 0 10 0 Z"/><path fill="none" stroke="#333333" d="M 10 0 M 10 0 L 90 0 Q 100 0 100 10 L 100 77.5 Q 100 87.5 90 87.5 L 10 87.5 Q 0 87.5 0 77.5 L 0 10 Q 0 0 10 0 Z" stroke-miterlimit="10" stroke-width="2"/></g></g></g></g></g><g transform="scale(1,1) matrix(1,0,0,1,602.5,319) translate(8,22.75)"><text fill="#000000" stroke="none" font-family="Arial" font-size="12px" font-style="normal" font-weight="normal" text-decoration="none" x="34" y="11">R </text><text fill="#000000" stroke="none" font-family="Arial" font-size="12px" font-style="normal" font-weight="normal" text-decoration="none" x="0" y="25">OutputService </text><text fill="#000000" stroke="none" font-family="Arial" font-size="12px" font-style="normal" font-weight="normal" text-decoration="none" x="22.5" y="39">(WCF)</text></g><g transform="translate(0,0) matrix(1,0,0,1,451,319)"><g><g transform="translate(0,0) scale(1.29,0.86)"><g><path fill="none" stroke="none" d="M 10 0 L 90 0 Q 100 0 100 10 L 100 90 Q 100 100 90 100 L 10 100 Q 0 100 0 90 L 0 10 Q 0 0 10 0 Z"/><g transform="scale(0.7751937984496123,1.1627906976744187)"><path fill="#FFFFFF" stroke="none" d="M 10 0 L 119 0 Q 129 0 129 10 L 129 76 Q 129 86 119 86 L 10 86 Q 0 86 0 76 L 0 10 Q 0 0 10 0 Z"/><path fill="none" stroke="#333333" d="M 10 0 M 10 0 L 119 0 Q 129 0 129 10 L 129 76 Q 129 86 119 86 L 10 86 Q 0 86 0 76 L 0 10 Q 0 0 10 0 Z" stroke-miterlimit="10" stroke-width="2"/></g></g></g></g></g><g transform="scale(1,1) matrix(1,0,0,1,453.58,319) translate(8,29)"><text fill="#000000" stroke="none" font-family="Arial" font-size="12px" font-style="normal" font-weight="normal" text-decoration="none" x="15.920000000000009" y="11">Graphics and </text><text fill="#000000" stroke="none" font-family="Arial" font-size="12px" font-style="normal" font-weight="normal" text-decoration="none" x="7.420000000000009" y="25">Console Devices</text></g><g transform="scale(1,1) matrix(1,0,0,1,459.25,440.5) translate(2,0)"><text fill="#000000" stroke="none" font-family="Arial" font-size="12px" font-style="normal" font-weight="normal" text-decoration="none" x="96.5" y="11">Server</text></g><g transform="scale(1,1) matrix(1,0,0,1,166,441.5) translate(2,0)"><text fill="#000000" stroke="none" font-family="Arial" font-size="12px" font-style="normal" font-weight="normal" text-decoration="none" x="2" y="11">R.Adapter (Native Library)</text></g><g transform="translate(0,0) matrix(1,0,0,1,345,239.625)"><g><g transform="translate(0,0) scale(1,0.5)"><g><g transform="scale(1,2)"><path fill="#FFFFFF" stroke="none" d="M 0 25 L 25 0 L 25 15 L 100 15 L 100 35 L 25 35 L 25 50 L 0 25 Z"/><path fill="none" stroke="#333333" d="M 0 25 M 0 25 L 25 0 L 25 15 L 100 15 L 100 35 L 25 35 L 25 50 L 0 25 Z" stroke-miterlimit="10" stroke-width="2"/></g></g></g></g></g><g transform="scale(1,1) matrix(1,0,0,1,347,239.625) translate(8,18)"><text fill="#000000" stroke="none" font-family="Arial" font-size="12px" font-style="normal" font-weight="normal" text-decoration="none" x="18" y="11">PInvoke</text></g><g transform="scale(1,1) matrix(1,0,0,1,1210,533) translate(2,0)"><text fill="#000000" stroke="none" font-family="Arial" font-size="12px" font-style="normal" font-weight="normal" text-decoration="none" x="72" y="11">DotNet Process</text></g><g transform="translate(0,0) matrix(1,0,0,1,908.75,130.375)"><g><g transform="translate(0,0) scale(6.8,3.5775)"><g><path fill="none" stroke="none" d="M 10 0 L 90 0 Q 100 0 100 10 L 100 90 Q 100 100 90 100 L 10 100 Q 0 100 0 90 L 0 10 Q 0 0 10 0 Z"/><g transform="scale(0.14705882352941177,0.2795248078266946)"><path fill="#FFFFFF" stroke="none" d="M 10 0 L 670 0 Q 680 0 680 10 L 680 347.75 Q 680 357.75 670 357.75 L 10 357.75 Q 0 357.75 0 347.75 L 0 10 Q 0 0 10 0 Z"/><path fill="none" stroke="#333333" d="M 10 0 M 10 0 L 670 0 Q 680 0 680 10 L 680 347.75 Q 680 357.75 670 357.75 L 10 357.75 Q 0 357.75 0 347.75 L 0 10 Q 0 0 10 0 Z" stroke-miterlimit="10" stroke-width="2"/></g></g></g></g></g><g transform="translate(0,0) matrix(1,0,0,1,730,259.25)"><g><g transform="translate(0,0) scale(2,0.5)"><g><g transform="scale(0.5,2)"><path fill="#FFFFFF" stroke="none" d="M 0 25 L 25 0 L 25 15 L 200 15 L 200 35 L 25 35 L 25 50 L 0 25 Z"/><path fill="none" stroke="#333333" d="M 0 25 M 0 25 L 25 0 L 25 15 L 200 15 L 200 35 L 25 35 L 25 50 L 0 25 Z" stroke-miterlimit="10" stroke-width="2"/></g></g></g></g></g><g transform="scale(1,1) matrix(1,0,0,1,734,259.25) translate(8,18)"><text fill="#000000" stroke="none" font-family="Arial" font-size="12px" font-style="normal" font-weight="normal" text-decoration="none" x="29.999999999999986" y="11">WCF Communication</text></g><g transform="scale(1,1) matrix(1,0,0,1,1043.5,468.75) translate(2,0)"><text fill="#000000" stroke="none" font-family="Arial" font-size="12px" font-style="normal" font-weight="normal" text-decoration="none" x="57" y="11">Client</text></g><g transform="translate(0,0) matrix(1,0,0,1,958.75,152.375)"><g><g transform="translate(0,0) scale(1.2475,0.6475)"><g><path fill="none" stroke="none" d="M 10 0 L 90 0 Q 100 0 100 10 L 100 90 Q 100 100 90 100 L 10 100 Q 0 100 0 90 L 0 10 Q 0 0 10 0 Z"/><g transform="scale(0.8016032064128256,1.5444015444015444)"><path fill="#FFFFFF" stroke="none" d="M 10 0 L 114.75 0 Q 124.75 0 124.75 10 L 124.75 54.75 Q 124.75 64.75 114.75 64.75 L 10 64.75 Q 0 64.75 0 54.75 L 0 10 Q 0 0 10 0 Z"/><path fill="none" stroke="#333333" d="M 10 0 M 10 0 L 114.75 0 Q 124.75 0 124.75 10 L 124.75 54.75 Q 124.75 64.75 114.75 64.75 L 10 64.75 Q 0 64.75 0 54.75 L 0 10 Q 0 0 10 0 Z" stroke-miterlimit="10" stroke-width="2"/></g></g></g></g></g><g transform="scale(1,1) matrix(1,0,0,1,961.245,152.375) translate(8,18.375)"><text fill="#000000" stroke="none" font-family="Arial" font-size="12px" font-style="normal" font-weight="normal" text-decoration="none" x="0.38000000000001677" y="11">Language Service </text><text fill="#000000" stroke="none" font-family="Arial" font-size="12px" font-style="normal" font-weight="normal" text-decoration="none" x="35.88000000000002" y="25">Client</text></g><g transform="translate(0,0) matrix(1,0,0,1,958.75,231.375)"><g><g transform="translate(0,0) scale(1.2475,0.60125)"><g><path fill="none" stroke="none" d="M 10 0 L 90 0 Q 100 0 100 10 L 100 90 Q 100 100 90 100 L 10 100 Q 0 100 0 90 L 0 10 Q 0 0 10 0 Z"/><g transform="scale(0.8016032064128256,1.6632016632016633)"><path fill="#FFFFFF" stroke="none" d="M 10 0 L 114.75 0 Q 124.75 0 124.75 10 L 124.75 50.12499999999999 Q 124.75 60.12499999999999 114.75 60.12499999999999 L 10 60.12499999999999 Q 0 60.12499999999999 0 50.12499999999999 L 0 10 Q 0 0 10 0 Z"/><path fill="none" stroke="#333333" d="M 10 0 M 10 0 L 114.75 0 Q 124.75 0 124.75 10 L 124.75 50.12499999999999 Q 124.75 60.12499999999999 114.75 60.12499999999999 L 10 60.12499999999999 Q 0 60.12499999999999 0 50.12499999999999 L 0 10 Q 0 0 10 0 Z" stroke-miterlimit="10" stroke-width="2"/></g></g></g></g></g><g transform="scale(1,1) matrix(1,0,0,1,961.245,231.375) translate(8,16.0625)"><text fill="#000000" stroke="none" font-family="Arial" font-size="12px" font-style="normal" font-weight="normal" text-decoration="none" x="14.380000000000017" y="11">Management </text><text fill="#000000" stroke="none" font-family="Arial" font-size="12px" font-style="normal" font-weight="normal" text-decoration="none" x="13.880000000000017" y="25">Service Client</text></g><g transform="translate(0,0) matrix(1,0,0,1,958.75,309.375)"><g><g transform="translate(0,0) scale(1.2475,0.45)"><g><path fill="none" stroke="none" d="M 10 0 L 90 0 Q 100 0 100 10 L 100 90 Q 100 100 90 100 L 10 100 Q 0 100 0 90 L 0 10 Q 0 0 10 0 Z"/><g transform="scale(0.8016032064128256,2.2222222222222223)"><path fill="#FFFFFF" stroke="none" d="M 10 0 L 114.75 0 Q 124.75 0 124.75 10 L 124.75 35 Q 124.75 45 114.75 45 L 10 45 Q 0 45 0 35 L 0 10 Q 0 0 10 0 Z"/><path fill="none" stroke="#333333" d="M 10 0 M 10 0 L 114.75 0 Q 124.75 0 124.75 10 L 124.75 35 Q 124.75 45 114.75 45 L 10 45 Q 0 45 0 35 L 0 10 Q 0 0 10 0 Z" stroke-miterlimit="10" stroke-width="2"/></g></g></g></g></g><g transform="scale(1,1) matrix(1,0,0,1,961.245,309.375) translate(8,8.5)"><text fill="#000000" stroke="none" font-family="Arial" font-size="12px" font-style="normal" font-weight="normal" text-decoration="none" x="10.380000000000017" y="11">Output Service </text><text fill="#000000" stroke="none" font-family="Arial" font-size="12px" font-style="normal" font-weight="normal" text-decoration="none" x="35.88000000000002" y="25">Client</text></g><g transform="translate(0,0) matrix(1,0,0,1,958.75,369.625)"><g><g transform="translate(0,0) scale(1.2475,0.45)"><g><path fill="none" stroke="none" d="M 10 0 L 90 0 Q 100 0 100 10 L 100 90 Q 100 100 90 100 L 10 100 Q 0 100 0 90 L 0 10 Q 0 0 10 0 Z"/><g transform="scale(0.8016032064128256,2.2222222222222223)"><path fill="#FFFFFF" stroke="none" d="M 10 0 L 114.75 0 Q 124.75 0 124.75 10 L 124.75 35 Q 124.75 45 114.75 45 L 10 45 Q 0 45 0 35 L 0 10 Q 0 0 10 0 Z"/><path fill="none" stroke="#333333" d="M 10 0 M 10 0 L 114.75 0 Q 124.75 0 124.75 10 L 124.75 35 Q 124.75 45 114.75 45 L 10 45 Q 0 45 0 35 L 0 10 Q 0 0 10 0 Z" stroke-miterlimit="10" stroke-width="2"/></g></g></g></g></g><g transform="scale(1,1) matrix(1,0,0,1,961.245,369.625) translate(8,8.5)"><text fill="#000000" stroke="none" font-family="Arial" font-size="12px" font-style="normal" font-weight="normal" text-decoration="none" x="6.380000000000017" y="11">Process Monitor </text><text fill="#000000" stroke="none" font-family="Arial" font-size="12px" font-style="normal" font-weight="normal" text-decoration="none" x="35.88000000000002" y="25">Client</text></g><g transform="translate(0,0) matrix(1,0,0,1,400,475.75)"><g><g transform="translate(0,0) scale(3.3,0.45)"><g><path fill="none" stroke="none" d="M 10 0 L 90 0 Q 100 0 100 10 L 100 90 Q 100 100 90 100 L 10 100 Q 0 100 0 90 L 0 10 Q 0 0 10 0 Z"/><g transform="scale(0.30303030303030304,2.2222222222222223)"><path fill="#FFFFFF" stroke="none" d="M 10 0 L 320 0 Q 330 0 330 10 L 330 35 Q 330 45 320 45 L 10 45 Q 0 45 0 35 L 0 10 Q 0 0 10 0 Z"/><path fill="none" stroke="#333333" d="M 10 0 M 10 0 L 320 0 Q 330 0 330 10 L 330 35 Q 330 45 320 45 L 10 45 Q 0 45 0 35 L 0 10 Q 0 0 10 0 Z" stroke-miterlimit="10" stroke-width="2"/></g></g></g></g></g><g transform="scale(1,1) matrix(1,0,0,1,406.6,475.75) translate(8,15.5)"><text fill="#000000" stroke="none" font-family="Arial" font-size="12px" font-style="normal" font-weight="normal" text-decoration="none" x="65.40000000000003" y="11">Process Monitor Service (WCF)</text></g><g transform="translate(0,0) matrix(1,0,0,1,1093.5,151.25)"><g><g transform="translate(0,0) scale(1,1.98)"><g><path fill="none" stroke="none" d="M 10 0 L 90 0 Q 100 0 100 10 L 100 90 Q 100 100 90 100 L 10 100 Q 0 100 0 90 L 0 10 Q 0 0 10 0 Z"/><g transform="scale(1,0.5050505050505051)"><path fill="#FFFFFF" stroke="none" d="M 10 0 L 90 0 Q 100 0 100 10 L 100 188 Q 100 198 90 198 L 10 198 Q 0 198 0 188 L 0 10 Q 0 0 10 0 Z"/><path fill="none" stroke="#333333" d="M 10 0 M 10 0 L 90 0 Q 100 0 100 10 L 100 188 Q 100 198 90 198 L 10 198 Q 0 198 0 188 L 0 10 Q 0 0 10 0 Z" stroke-miterlimit="10" stroke-width="2"/></g></g></g></g></g><g transform="scale(1,1) matrix(1,0,0,1,1095.5,151.25) translate(8,92)"><text fill="#000000" stroke="none" font-family="Arial" font-size="12px" font-style="normal" font-weight="normal" text-decoration="none" x="3" y="11">RSafeHandle</text></g><g transform="translate(0,0) matrix(1,0,0,1,1628.75,130.375)"><g><g transform="translate(0,0) scale(1,3.5775)"><g><path fill="none" stroke="none" d="M 10 0 L 90 0 Q 100 0 100 10 L 100 90 Q 100 100 90 100 L 10 100 Q 0 100 0 90 L 0 10 Q 0 0 10 0 Z"/><g transform="scale(1,0.2795248078266946)"><path fill="#FFFFFF" stroke="none" d="M 10 0 L 90 0 Q 100 0 100 10 L 100 347.75 Q 100 357.75 90 357.75 L 10 357.75 Q 0 357.75 0 347.75 L 0 10 Q 0 0 10 0 Z"/><path fill="none" stroke="#333333" d="M 10 0 M 10 0 L 90 0 Q 100 0 100 10 L 100 347.75 Q 100 357.75 90 357.75 L 10 357.75 Q 0 357.75 0 347.75 L 0 10 Q 0 0 10 0 Z" stroke-miterlimit="10" stroke-width="2"/></g></g></g></g></g><g transform="scale(1,1) matrix(1,0,0,1,1630.75,130.375) translate(8,150.875)"><text fill="#000000" stroke="none" font-family="Arial" font-size="12px" font-style="normal" font-weight="normal" text-decoration="none" x="8" y="11">Application </text><text fill="#000000" stroke="none" font-family="Arial" font-size="12px" font-style="normal" font-weight="normal" text-decoration="none" x="2.5" y="25">(REST/ASP.N</text><text fill="#000000" stroke="none" font-family="Arial" font-size="12px" font-style="normal" font-weight="normal" text-decoration="none" x="2.5" y="39">ET/WPF/WinF</text><text fill="#000000" stroke="none" font-family="Arial" font-size="12px" font-style="normal" font-weight="normal" text-decoration="none" x="12" y="53">orms/etc..)</text></g><g transform="translate(0,0) matrix(1,0,0,1,1103.75,369.625)"><g><g transform="translate(0,0) scale(1.9,0.45)"><g><path fill="none" stroke="none" d="M 10 0 L 90 0 Q 100 0 100 10 L 100 90 Q 100 100 90 100 L 10 100 Q 0 100 0 90 L 0 10 Q 0 0 10 0 Z"/><g transform="scale(0.5263157894736842,2.2222222222222223)"><path fill="#FFFFFF" stroke="none" d="M 10 0 L 180 0 Q 190 0 190 10 L 190 35 Q 190 45 180 45 L 10 45 Q 0 45 0 35 L 0 10 Q 0 0 10 0 Z"/><path fill="none" stroke="#333333" d="M 10 0 M 10 0 L 180 0 Q 190 0 190 10 L 190 35 Q 190 45 180 45 L 10 45 Q 0 45 0 35 L 0 10 Q 0 0 10 0 Z" stroke-miterlimit="10" stroke-width="2"/></g></g></g></g></g><g transform="scale(1,1) matrix(1,0,0,1,1107.55,369.625) translate(8,15.5)"><text fill="#000000" stroke="none" font-family="Arial" font-size="12px" font-style="normal" font-weight="normal" text-decoration="none" x="39.70000000000003" y="11">Process Factory</text></g><g transform="translate(0,0) matrix(1,0,0,1,1210,151.25)"><g><g transform="translate(0,0) scale(1.5,1.98)"><g><path fill="none" stroke="none" d="M 10 0 L 90 0 Q 100 0 100 10 L 100 90 Q 100 100 90 100 L 10 100 Q 0 100 0 90 L 0 10 Q 0 0 10 0 Z"/><g transform="scale(0.6666666666666666,0.5050505050505051)"><path fill="#FFFFFF" stroke="none" d="M 10 0 L 140 0 Q 150 0 150 10 L 150 188 Q 150 198 140 198 L 10 198 Q 0 198 0 188 L 0 10 Q 0 0 10 0 Z"/><path fill="none" stroke="#333333" d="M 10 0 M 10 0 L 140 0 Q 150 0 150 10 L 150 188 Q 150 198 140 198 L 10 198 Q 0 198 0 188 L 0 10 Q 0 0 10 0 Z" stroke-miterlimit="10" stroke-width="2"/></g></g></g></g></g><g transform="scale(1,1) matrix(1,0,0,1,1213,151.25) translate(8,92)"><text fill="#000000" stroke="none" font-family="Arial" font-size="12px" font-style="normal" font-weight="normal" text-decoration="none" x="8.499999999999986" y="11">SymbolicExpression</text></g><g transform="translate(0,0) matrix(1,0,0,1,1380,151.25)"><g><g transform="translate(0,0) scale(1.5,1.98)"><g><path fill="none" stroke="none" d="M 10 0 L 90 0 Q 100 0 100 10 L 100 90 Q 100 100 90 100 L 10 100 Q 0 100 0 90 L 0 10 Q 0 0 10 0 Z"/><g transform="scale(0.6666666666666666,0.5050505050505051)"><path fill="#FFFFFF" stroke="none" d="M 10 0 L 140 0 Q 150 0 150 10 L 150 188 Q 150 198 140 198 L 10 198 Q 0 198 0 188 L 0 10 Q 0 0 10 0 Z"/><path fill="none" stroke="#333333" d="M 10 0 M 10 0 L 140 0 Q 150 0 150 10 L 150 188 Q 150 198 140 198 L 10 198 Q 0 198 0 188 L 0 10 Q 0 0 10 0 Z" stroke-miterlimit="10" stroke-width="2"/></g></g></g></g></g><g transform="scale(1,1) matrix(1,0,0,1,1383,151.25) translate(8,85)"><text fill="#000000" stroke="none" font-family="Arial" font-size="12px" font-style="normal" font-weight="normal" text-decoration="none" x="3.999999999999986" y="11">Object Model (Vector, </text><text fill="#000000" stroke="none" font-family="Arial" font-size="12px" font-style="normal" font-weight="normal" text-decoration="none" x="17.499999999999986" y="25">DataFrame, etc..)</text></g></g></svg>